<svg width="70" height="61" viewBox="0 0 70 61" fill="none" xmlns="http://www.w3.org/2000/svg">
<g clip-path="url(#clip0_1805_17)">
<path d="M68.16 10.68H31.42V1.43403C31.4217 1.24725 31.3866 1.06197 31.3166 0.888778C31.2467 0.715588 31.1433 0.55789 31.0123 0.424703C30.8813 0.291516 30.7254 0.185454 30.5534 0.112584C30.3814 0.0397146 30.1968 0.00146681 30.01 2.87636e-05C29.9431 -0.000382959 29.8763 0.00362578 29.81 0.0120288C29.51 0.0120288 22.357 1.06503 22.058 6.75403V14.691H13.755V7.47903C13.755 2.20203 6.97 0.154029 6.642 0.0690288C6.27985 -0.0365764 5.8906 0.00583117 5.55968 0.186942C5.22877 0.368053 4.98325 0.673068 4.877 1.03503C4.83445 1.18346 4.81588 1.33774 4.822 1.49203L4.922 10.453H1.422C1.04504 10.453 0.683496 10.6027 0.416848 10.8692C0.1502 11.1356 0.000265095 11.4971 0 11.874L0 35.215C0.00303968 35.4115 0.0466163 35.6052 0.128 35.784L10.611 59.384C10.7213 59.636 10.9022 59.8506 11.1318 60.002C11.3614 60.1534 11.63 60.235 11.905 60.237H12.205C12.5286 60.1676 12.8179 59.9875 13.023 59.7278C13.2282 59.468 13.3364 59.1449 13.329 58.814V31.191H31.819V57.746C31.8193 58.1233 31.9693 58.4849 32.2361 58.7516C32.503 59.0182 32.8648 59.168 33.242 59.168C35.873 59.168 41.164 57.262 42.342 50.037C43.1421 45.4369 44.5782 40.9704 46.609 36.766H68.159C68.5361 36.7658 68.8976 36.6159 69.1642 36.3492C69.4308 36.0826 69.5807 35.7211 69.581 35.344V27.165C69.581 26.7878 69.4312 26.426 69.1646 26.1592C68.8979 25.8923 68.5362 25.7423 68.159 25.742H33.2C32.8228 25.7423 32.4611 25.8923 32.1944 26.1592C31.9278 26.426 31.778 26.7878 31.778 27.165V28.345H28.578V26.624C28.578 26.2469 28.4282 25.8852 28.1615 25.6185C27.8948 25.3518 27.5331 25.202 27.156 25.202C26.7789 25.202 26.4172 25.3518 26.1505 25.6185C25.8838 25.8852 25.734 26.2469 25.734 26.624V28.345H22.288V26.624C22.288 26.2468 22.1381 25.8849 21.8714 25.6182C21.6046 25.3514 21.2428 25.2015 20.8655 25.2015C20.4882 25.2015 20.1264 25.3514 19.8596 25.6182C19.5929 25.8849 19.443 26.2468 19.443 26.624V28.345H16V26.624C16 26.2469 15.8502 25.8852 15.5835 25.6185C15.3168 25.3518 14.9551 25.202 14.578 25.202C14.2009 25.202 13.8392 25.3518 13.5725 25.6185C13.3058 25.8852 13.156 26.2469 13.156 26.624V28.345H11.848C11.4708 28.3453 11.1091 28.4953 10.8424 28.7622C10.5758 29.029 10.426 29.3908 10.426 29.768V52.068L2.845 34.917V13.297H6.345C6.72223 13.297 7.08402 13.1472 7.35086 12.8806C7.6177 12.6139 7.76774 12.2523 7.768 11.875V3.59603C9.19 4.35003 10.94 5.64403 10.94 7.49603V16.141C10.9403 16.5183 11.0903 16.8799 11.3571 17.1466C11.624 17.4132 11.9858 17.563 12.363 17.563H31.776V19.341C31.776 19.528 31.8128 19.7131 31.8844 19.8858C31.956 20.0585 32.0609 20.2154 32.1931 20.3476C32.3254 20.4797 32.4824 20.5845 32.6551 20.656C32.8279 20.7274 33.013 20.7642 33.2 20.764H68.159C68.5362 20.764 68.898 20.6142 69.1649 20.3476C69.4317 20.0809 69.5817 19.7193 69.582 19.342V12.102C69.5817 11.725 69.4318 11.3634 69.1652 11.0968C68.8986 10.8302 68.5371 10.6803 68.16 10.68ZM34.62 28.591H37.465V30.312C37.465 30.6893 37.6149 31.0511 37.8816 31.3179C38.1484 31.5847 38.5102 31.7345 38.8875 31.7345C39.2648 31.7345 39.6266 31.5847 39.8934 31.3179C40.1601 31.0511 40.31 30.6893 40.31 30.312V28.591H43.752V30.312C43.752 30.6893 43.9019 31.0511 44.1686 31.3179C44.4354 31.5847 44.7972 31.7345 45.1745 31.7345C45.5518 31.7345 45.9136 31.5847 46.1804 31.3179C46.4471 31.0511 46.597 30.6893 46.597 30.312V28.591H50.039V30.312C50.039 30.6893 50.1889 31.0511 50.4556 31.3179C50.7224 31.5847 51.0842 31.7345 51.4615 31.7345C51.8388 31.7345 52.2006 31.5847 52.4674 31.3179C52.7341 31.0511 52.884 30.6893 52.884 30.312V28.591H56.326V30.312C56.326 30.6893 56.4759 31.0511 56.7426 31.3179C57.0094 31.5847 57.3712 31.7345 57.7485 31.7345C58.1258 31.7345 58.4876 31.5847 58.7544 31.3179C59.0211 31.0511 59.171 30.6893 59.171 30.312V28.591H62.613V30.312C62.613 30.6892 62.7628 31.0509 63.0295 31.3175C63.2962 31.5842 63.6579 31.734 64.035 31.734C64.4121 31.734 64.7738 31.5842 65.0405 31.3175C65.3072 31.0509 65.457 30.6892 65.457 30.312V28.591H66.709V33.921H45.757C45.5011 33.9205 45.2497 33.9889 45.0294 34.1191C44.8091 34.2494 44.6279 34.4366 44.505 34.661C42.0871 39.3472 40.3941 44.373 39.484 49.567C38.759 54.019 36.227 55.526 34.605 56.053L34.62 28.591ZM31.776 14.719H24.834V6.85303C24.948 4.79103 26.996 3.75303 28.518 3.25303V12.115C28.5183 12.4923 28.6683 12.8539 28.9351 13.1206C29.202 13.3872 29.5638 13.537 29.941 13.537H31.719L31.776 14.719ZM66.737 17.919H34.62V13.525H66.737V17.919Z" fill="#98bcdc"/>
</g>
<defs>
<clipPath id="clip0_1805_17">
<rect width="69.582" height="60.235" fill="white"/>
</clipPath>
</defs>
</svg>
