<svg width="51" height="74" viewBox="0 0 51 74" fill="none" xmlns="http://www.w3.org/2000/svg">
<g clip-path="url(#clip0_1805_12)">
<path d="M25.4701 0C20.1874 0.00103638 15.0357 1.64405 10.7278 4.70166C6.41998 7.75927 3.16903 12.0803 1.42488 17.0667C-0.319277 22.0532 -0.470384 27.4584 0.992467 32.5345C2.45532 37.6106 5.45979 42.1065 9.5901 45.4V57.991C9.5901 65.677 14.8781 68.469 19.4621 68.554C19.7715 69.9046 20.53 71.1103 21.6137 71.9738C22.6974 72.8373 24.042 73.3075 25.4276 73.3075C26.8132 73.3075 28.1578 72.8373 29.2415 71.9738C30.3252 71.1103 31.0837 69.9046 31.3931 68.554C36.0191 68.469 41.2651 65.733 41.2651 57.991V45.4C44.2667 43.0287 46.6899 40.0062 48.3516 36.5607C50.0134 33.1153 50.8701 29.3372 50.8571 25.512C50.8603 18.7664 48.1907 12.2944 43.4325 7.51286C38.6744 2.73133 32.2156 0.0298913 25.4701 0ZM25.4701 70.514C24.8398 70.511 24.2233 70.3292 23.6922 69.9896C23.1612 69.6501 22.7374 69.1669 22.4701 68.596H28.4921C28.2234 69.1704 27.7963 69.6561 27.2609 69.9959C26.7255 70.3357 26.1042 70.5154 25.4701 70.514ZM38.5291 58.033C38.5291 65.084 33.4101 65.775 31.2091 65.775H19.7161C18.3286 65.8649 16.9469 65.5279 15.7565 64.8095C14.5661 64.091 13.6241 63.0255 13.0571 61.756H23.4111C23.7852 61.756 24.144 61.6074 24.4085 61.3429C24.673 61.0784 24.8216 60.7196 24.8216 60.3455C24.8216 59.9714 24.673 59.6126 24.4085 59.3481C24.144 59.0836 23.7852 58.935 23.4111 58.935H12.4571V53.154H38.5291V58.033ZM39.0931 43.633C38.918 43.7643 38.7758 43.9346 38.678 44.1304C38.5801 44.3262 38.5291 44.5421 38.5291 44.761V50.4H12.4111V44.762C12.4111 44.5431 12.3601 44.3272 12.2622 44.1314C12.1643 43.9356 12.0222 43.7653 11.8471 43.634C8.05248 40.7769 5.25219 36.799 3.8423 32.2631C2.43242 27.7272 2.4843 22.8628 3.99062 18.358C5.49694 13.8531 8.38145 9.93592 12.2361 7.16037C16.0908 4.38482 20.7206 2.89143 25.4706 2.89143C30.2206 2.89143 34.8504 4.38482 38.705 7.16037C42.5597 9.93592 45.4442 13.8531 46.9506 18.358C48.4569 22.8628 48.5088 27.7272 47.0989 32.2631C45.689 36.799 42.8887 40.7769 39.0941 43.634L39.0931 43.633Z" fill="#98bcdc"/>
<path d="M31.6751 25.2261H19.2651C18.9846 25.2272 18.7107 25.312 18.4786 25.4697C18.2465 25.6273 18.0667 25.8506 17.9622 26.111C17.8578 26.3714 17.8333 26.657 17.8921 26.9314C17.9509 27.2057 18.0902 27.4563 18.2921 27.6511L24.0601 33.1801V41.9661C24.0601 42.3402 24.2087 42.6989 24.4733 42.9635C24.7378 43.228 25.0966 43.3766 25.4706 43.3766C25.8447 43.3766 26.2035 43.228 26.468 42.9635C26.7325 42.6989 26.8811 42.3402 26.8811 41.9661V33.1801L32.6491 27.6511C32.8511 27.4563 32.9904 27.2057 33.0492 26.9314C33.1079 26.657 33.0835 26.3714 32.979 26.111C32.8746 25.8506 32.6948 25.6273 32.4627 25.4697C32.2306 25.312 31.9567 25.2272 31.6761 25.2261H31.6751ZM25.4701 30.6261L22.7771 28.0461H28.1641L25.4701 30.6261Z" fill="#98bcdc"/>
</g>
<defs>
<clipPath id="clip0_1805_12">
<rect width="50.855" height="73.306" fill="white"/>
</clipPath>
</defs>
</svg>
