<svg width="65" height="73" viewBox="0 0 65 73" fill="none" xmlns="http://www.w3.org/2000/svg">
<g clip-path="url(#clip0_1805_2)">
<path d="M63.806 34.456L60.916 33.213V31.237C60.9357 25.3198 59.1102 19.5436 55.6934 14.7125C52.2767 9.88142 47.4387 6.23576 41.853 4.283V1.5C41.853 1.10269 41.6953 0.721618 41.4147 0.440399C41.134 0.159181 40.7533 0.000794611 40.356 0L24.333 0C23.9351 0 23.5536 0.158035 23.2723 0.43934C22.991 0.720644 22.833 1.10218 22.833 1.5V4.3C17.2481 6.25316 12.411 9.89873 8.99486 14.7294C5.5787 19.56 3.75339 25.3355 3.77295 31.252V33.243L0.915953 34.456C0.645331 34.5709 0.414423 34.7627 0.251925 35.0077C0.0894263 35.2527 0.00250178 35.54 0.00195312 35.834V43.7C0.00195313 44.0978 0.159988 44.4794 0.441293 44.7607C0.722598 45.042 1.10413 45.2 1.50195 45.2H3.44395V48.2C3.44395 48.5978 3.60199 48.9794 3.88329 49.2607C4.1646 49.542 4.54613 49.7 4.94395 49.7H10.316C10.8266 51.5753 11.5764 53.3771 12.547 55.061L8.74695 58.861C8.46879 59.1419 8.31275 59.5212 8.31275 59.9165C8.31275 60.3118 8.46879 60.6911 8.74695 60.972L15.111 67.336C15.3918 67.6142 15.7711 67.7702 16.1665 67.7702C16.5618 67.7702 16.9411 67.6142 17.222 67.336L21.022 63.536C22.701 64.5057 24.4977 65.2555 26.368 65.767V71.143C26.368 71.5408 26.526 71.9224 26.8073 72.2037C27.0886 72.485 27.4701 72.643 27.868 72.643H36.852C37.2498 72.643 37.6313 72.485 37.9126 72.2037C38.1939 71.9224 38.352 71.5408 38.352 71.143V65.753C40.2275 65.243 42.0293 64.4931 43.713 63.522L47.513 67.322C47.7938 67.6002 48.1731 67.7562 48.5685 67.7562C48.9638 67.7562 49.3431 67.6002 49.624 67.322L55.988 60.958C56.2661 60.6771 56.4222 60.2978 56.4222 59.9025C56.4222 59.5072 56.2661 59.1279 55.988 58.847L52.188 55.047C53.1576 53.3627 53.9064 51.5605 54.416 49.685H59.791C60.1888 49.685 60.5703 49.527 60.8516 49.2457C61.1329 48.9644 61.291 48.5828 61.291 48.185V45.185H63.238C63.6358 45.185 64.0173 45.027 64.2986 44.7457C64.5799 44.4644 64.738 44.0828 64.738 43.685V35.834C64.7359 35.538 64.6463 35.2492 64.4805 35.004C64.3146 34.7587 64.0799 34.5681 63.806 34.456ZM25.801 3.01H38.858V28.032H25.831L25.801 3.01ZM58.31 46.69H53.324C52.9754 46.6821 52.635 46.7959 52.3613 47.0118C52.0875 47.2277 51.8975 47.5322 51.824 47.873C51.3197 50.2179 50.3911 52.451 49.084 54.462C48.8978 54.7493 48.8155 55.0917 48.8508 55.4322C48.8861 55.7727 49.0368 56.091 49.278 56.334L52.857 59.913L48.576 64.165L44.997 60.586C44.7539 60.3449 44.4357 60.1942 44.0952 60.1589C43.7546 60.1236 43.4123 60.2059 43.125 60.392C41.1138 61.699 38.8808 62.6275 36.536 63.132C36.1952 63.2056 35.8907 63.3956 35.6748 63.6693C35.4589 63.9431 35.3451 64.2835 35.353 64.632V69.678H29.363V64.584C29.3708 64.2355 29.257 63.8951 29.0411 63.6213C28.8252 63.3476 28.5207 63.1576 28.18 63.084C25.8349 62.5805 23.602 61.6515 21.592 60.343C21.3045 60.157 20.9621 60.0749 20.6216 60.1104C20.281 60.1458 19.9629 60.2967 19.72 60.538L16.141 64.117L11.903 59.879L15.483 56.3C15.7242 56.0571 15.8751 55.7389 15.9106 55.3984C15.9461 55.0579 15.864 54.7154 15.678 54.428C14.3586 52.4291 13.4149 50.2064 12.893 47.869C12.8194 47.5282 12.6294 47.2237 12.3556 47.0078C12.0819 46.7919 11.7415 46.6781 11.393 46.686H6.40895V45.186H20.095C20.4566 48.1806 21.9026 50.939 24.1597 52.9399C26.4168 54.9408 29.3286 56.0457 32.345 56.0457C35.3613 56.0457 38.2731 54.9408 40.5302 52.9399C42.7873 50.939 44.2333 48.1806 44.595 45.186H58.295L58.31 46.69ZM23.15 45.19H41.584C41.2294 47.3809 40.1066 49.3741 38.4165 50.8127C36.7264 52.2513 34.5794 53.0413 32.36 53.0413C30.1405 53.0413 27.9935 52.2513 26.3034 50.8127C24.6134 49.3741 23.4905 47.3809 23.136 45.19H23.15ZM61.75 42.195H2.97995V36.822L5.86995 35.579C6.14054 35.4639 6.37135 35.2719 6.53367 35.0267C6.696 34.7815 6.78268 34.494 6.78295 34.2V31.206C6.7671 26.0957 8.2898 21.0988 11.1529 16.8658C14.016 12.6328 18.0869 9.35953 22.836 7.472V29.53C22.836 29.9278 22.994 30.3094 23.2753 30.5907C23.5566 30.872 23.9381 31.03 24.336 31.03H40.385C40.7828 31.03 41.1643 30.872 41.4456 30.5907C41.7269 30.3094 41.885 29.9278 41.885 29.53V7.472C46.6411 9.35946 50.718 12.6365 53.5839 16.8756C56.4498 21.1147 57.9717 26.1191 57.951 31.236V34.236C57.9517 34.5298 58.0387 34.8169 58.2012 35.0617C58.3637 35.3065 58.5945 35.4982 58.865 35.613L61.755 36.856V42.2L61.75 42.195Z" fill="#98bcdc"/>
</g>
<defs>
<clipPath id="clip0_1805_2">
<rect width="64.734" height="72.626" fill="white"/>
</clipPath>
</defs>
</svg>
