<svg width="72" height="67" viewBox="0 0 72 67" fill="none" xmlns="http://www.w3.org/2000/svg">
<g clip-path="url(#clip0_1805_6)">
<path d="M70.1858 27.2552H67.1528C66.7928 19.8864 63.6037 12.9406 58.2499 7.86463C52.8961 2.78866 45.7904 -0.026109 38.4129 0.00663008C31.0354 0.0393691 23.9549 2.9171 18.6464 8.04038C13.3378 13.1637 10.2105 20.1375 9.91585 27.5092L1.12885 29.3002C0.804941 29.3655 0.514305 29.5426 0.307748 29.8006C0.101191 30.0585 -0.00814564 30.3808 -0.00114869 30.7112V36.3532C-0.000883818 36.727 0.147754 37.0855 0.412123 37.3499C0.676492 37.6143 1.03498 37.7629 1.40885 37.7632H27.7159C28.1249 42.1782 31.6509 45.6052 33.0759 46.8042V65.3382C33.0759 65.7122 33.2244 66.071 33.4888 66.3355C33.7532 66.6001 34.1118 66.7489 34.4859 66.7492H42.0609C42.4349 66.7489 42.7935 66.6001 43.0579 66.3355C43.3223 66.071 43.4709 65.7122 43.4709 65.3382V46.2972L45.7709 43.7302H47.4489L47.7169 45.5212C47.7531 45.7539 47.8469 45.9738 47.9897 46.161C48.1326 46.3483 48.32 46.4968 48.5349 46.5932L63.0769 53.2082C63.409 53.3602 63.7871 53.3776 64.1318 53.2565C64.4765 53.1355 64.7607 52.8855 64.9249 52.5592L68.4509 45.5072C68.534 45.3417 68.5837 45.1615 68.5972 44.9768C68.6107 44.7921 68.5876 44.6066 68.5294 44.4308C68.4712 44.255 68.3789 44.0924 68.2579 43.9523C68.1368 43.8122 67.9893 43.6973 67.8238 43.6142C67.7838 43.5942 67.7448 43.5782 67.7038 43.5602L56.9549 39.3292V37.7352H70.1848C70.5589 37.7352 70.9176 37.5866 71.1822 37.3222C71.4468 37.0578 71.5956 36.6992 71.5958 36.3252V28.6662C71.5958 28.2921 71.4473 27.9334 71.1829 27.6688C70.9185 27.4042 70.5599 27.2554 70.1858 27.2552ZM65.2348 45.5912L63.0059 50.0482L50.3989 44.3222L50.0729 42.0772C50.022 41.7406 49.8511 41.4338 49.5918 41.2132C49.3325 40.9927 49.0022 40.8733 48.6618 40.8772H45.1359C44.939 40.8779 44.7445 40.9198 44.5647 41C44.3849 41.0803 44.2239 41.1971 44.0919 41.3432L40.9989 44.7872C40.7635 45.0457 40.6327 45.3825 40.6319 45.7322V63.9282H35.8829V46.0712C35.8831 45.8521 35.8322 45.636 35.7343 45.44C35.6364 45.244 35.4942 45.0736 35.3189 44.9422C35.3189 44.9422 31.0879 41.7422 30.5519 37.7062H54.1349V40.2592C54.1345 40.5418 54.2191 40.8179 54.3776 41.0519C54.5361 41.2858 54.7613 41.4667 55.0239 41.5712L65.2348 45.5912ZM68.7748 34.8862H2.83585V31.8392L11.5809 30.0482C11.9041 29.9822 12.1941 29.805 12.4002 29.5474C12.6063 29.2898 12.7155 28.968 12.7089 28.6382C12.7089 25.2457 13.377 21.8865 14.6753 18.7523C15.9735 15.6181 17.8763 12.7703 20.2752 10.3715C22.674 7.97266 25.5218 6.06981 28.656 4.77158C31.7902 3.47335 35.1494 2.80516 38.5419 2.80516C41.9343 2.80516 45.2935 3.47335 48.4277 4.77158C51.5619 6.06981 54.4097 7.97266 56.8085 10.3715C59.2074 12.7703 61.1102 15.6181 62.4084 18.7523C63.7067 21.8865 64.3748 25.2457 64.3748 28.6382C64.3751 29.012 64.5237 29.3705 64.7881 29.6349C65.0525 29.8993 65.411 30.0479 65.7849 30.0482H68.7849L68.7748 34.8862Z" fill="#98bcdc"/>
<path d="M40.3109 41.0363C40.3109 41.4827 40.1785 41.9191 39.9305 42.2902C39.6825 42.6614 39.33 42.9507 38.9176 43.1215C38.5052 43.2923 38.0514 43.337 37.6136 43.2499C37.1757 43.1629 36.7736 42.9479 36.4579 42.6322C36.1423 42.3166 35.9273 41.9144 35.8402 41.4766C35.7532 41.0388 35.7979 40.585 35.9687 40.1726C36.1395 39.7602 36.4288 39.4077 36.8 39.1597C37.1711 38.9117 37.6075 38.7793 38.0539 38.7793C38.6525 38.7793 39.2265 39.0171 39.6498 39.4404C40.0731 39.8636 40.3109 40.4377 40.3109 41.0363Z" fill="#98bcdc"/>
<path d="M40.9457 6.02832C40.5781 6.03811 40.2289 6.19101 39.9724 6.45446C39.7158 6.71792 39.5723 7.0711 39.5723 7.43882C39.5723 7.80654 39.7158 8.15973 39.9724 8.42318C40.2289 8.68663 40.5781 8.83953 40.9457 8.84932C45.3399 8.85329 49.553 10.6006 52.6602 13.7078C55.7674 16.815 57.5147 21.0281 57.5187 25.4223C57.5285 25.7899 57.6814 26.1392 57.9449 26.3957C58.2083 26.6522 58.5615 26.7958 58.9292 26.7958C59.2969 26.7958 59.6501 26.6522 59.9136 26.3957C60.177 26.1392 60.3299 25.7899 60.3397 25.4223C60.3323 20.281 58.2866 15.3523 54.6512 11.7169C51.0157 8.0814 46.087 6.03573 40.9457 6.02832Z" fill="#98bcdc"/>
</g>
<defs>
<clipPath id="clip0_1805_6">
<rect width="71.596" height="66.749" fill="white"/>
</clipPath>
</defs>
</svg>
