<svg width="95" height="95" viewBox="0 0 95 95" fill="none" xmlns="http://www.w3.org/2000/svg">
<g clip-path="url(#clip0_1807_13)">
<path d="M10.7261 79.6743H41.3711V87.3353H10.7261V79.6743Z" fill="#fedb03"/>
<path d="M88.871 18.3845C88.871 20.8089 88.1521 23.1788 86.8052 25.1946C85.4582 27.2105 83.5438 28.7816 81.3039 29.7094C79.0641 30.6372 76.5994 30.8799 74.2216 30.4069C71.8437 29.934 69.6596 28.7665 67.9453 27.0522C66.2309 25.3379 65.0635 23.1537 64.5905 20.7759C64.1175 18.3981 64.3603 15.9334 65.2881 13.6935C66.2158 11.4537 67.787 9.53924 69.8028 8.19231C71.8186 6.84539 74.1886 6.12646 76.613 6.12646C79.864 6.12646 82.9819 7.41793 85.2807 9.71675C87.5795 12.0156 88.871 15.1334 88.871 18.3845Z" fill="#fedb03"/>
<path d="M82.742 76.1783V67.8453L78.898 66.5453C78.4804 65.0828 77.8952 63.6734 77.154 62.3453L78.954 58.7043L73.066 52.8163L69.425 54.6163C68.0962 53.8767 66.687 53.2919 65.225 52.8733L63.925 49.0303H55.591L54.291 52.8753C52.8286 53.2925 51.4192 53.8774 50.091 54.6183L46.45 52.8183L40.562 58.7063L42.362 62.3473C41.9166 63.1478 41.527 63.9781 41.196 64.8323L41.222 64.9173L45.535 66.3543C46.5285 66.6908 47.4383 67.2364 48.203 67.9543C49.0932 65.4114 50.796 63.2324 53.0483 61.754C55.3007 60.2755 57.9771 59.5799 60.6643 59.7746C63.3514 59.9692 65.8997 61.0433 67.9155 62.8309C69.9312 64.6186 71.3021 67.0202 71.8166 69.6648C72.331 72.3095 71.9602 75.0499 70.7616 77.4628C69.5629 79.8757 67.6031 81.8267 65.1848 83.0144C62.7666 84.2022 60.0245 84.5606 57.3822 84.0342C54.74 83.5078 52.3445 82.126 50.566 80.1023V87.3353H48.315L48.747 88.7033C50.5436 89.6182 52.3924 90.4267 54.284 91.1243L55.595 94.9963H63.924L65.224 91.1523C66.6866 90.735 68.096 90.1497 69.424 89.4083L73.065 91.2083L78.953 85.3193L77.153 81.6783C77.8931 80.3496 78.4782 78.9404 78.897 77.4783L82.742 76.1783Z" fill="#fedb03"/>
<path d="M59.758 58.2232C57.2459 58.2266 54.7822 58.9152 52.6325 60.215C50.4827 61.5147 48.7282 63.3763 47.558 65.5992C47.0682 65.3173 46.5525 65.0829 46.018 64.8992L33.708 60.7992V58.9592C35.704 57.6158 37.3161 55.7762 38.386 53.6212C39.9956 53.5995 41.5321 52.9454 42.6635 51.8003C43.7949 50.6552 44.4305 49.111 44.433 47.5012V39.5582C45.3496 39.2384 46.1404 38.635 46.691 37.8355C47.2415 37.036 47.5231 36.0819 47.4949 35.1116C47.4667 34.1413 47.1302 33.2052 46.5342 32.439C45.9381 31.6728 45.1136 31.1163 44.18 30.8502C43.5734 27.307 41.8461 24.0517 39.2522 21.5629C36.6582 19.074 33.3344 17.4829 29.769 17.0232C29.3753 16.4968 28.8644 16.0692 28.277 15.7741C27.6895 15.4791 27.0414 15.3247 26.384 15.3232H25.712C25.0546 15.3247 24.4066 15.4791 23.8191 15.7741C23.2316 16.0692 22.7208 16.4968 22.327 17.0232C18.7624 17.484 15.4393 19.0751 12.8453 21.5631C10.2513 24.0511 8.523 27.3049 7.91401 30.8472C6.98045 31.1133 6.15589 31.6698 5.55986 32.436C4.96384 33.2022 4.62734 34.1383 4.59915 35.1086C4.57096 36.0789 4.85254 37.033 5.40307 37.8325C5.95361 38.632 6.74447 39.2354 7.66101 39.5552V47.4982C7.66994 49.1045 8.30735 50.6434 9.4368 51.7856C10.5662 52.9278 12.098 53.5824 13.704 53.6092C14.7742 55.7686 16.3881 57.612 18.387 58.9582V60.7992L6.07701 64.8992C4.30531 65.4875 2.76428 66.6196 1.67321 68.1343C0.582146 69.6491 -0.00335985 71.4694 1.45036e-05 73.3362V88.8732H52.1V83.4612C53.889 84.659 55.9336 85.4211 58.0702 85.6863C60.2067 85.9515 62.3756 85.7124 64.4031 84.9883C66.4306 84.2642 68.2603 83.0752 69.7455 81.5166C71.2307 79.958 72.33 78.0731 72.9554 76.013C73.5809 73.9529 73.715 71.775 73.347 69.6537C72.9791 67.5325 72.1193 65.5269 70.8365 63.7979C69.5538 62.0688 67.8839 60.6643 65.9605 59.6969C64.0372 58.7295 61.9139 58.2262 59.761 58.2272L59.758 58.2232ZM36.774 65.0482V69.2122C36.7661 72.1695 37.8587 75.024 39.839 77.2202V85.8042H12.258V77.2202C14.2388 75.0242 15.3314 72.1696 15.323 69.2122V65.0482L18.506 63.9882C18.7779 65.7942 19.6887 67.4426 21.0729 68.634C22.457 69.8254 24.2227 70.4807 26.049 70.4807C27.8753 70.4807 29.641 69.8254 31.0252 68.634C32.4093 67.4426 33.3201 65.7942 33.592 63.9882L36.774 65.0482ZM41.374 39.8362V42.2202C40.895 41.9394 40.3794 41.7261 39.842 41.5862V39.8362H41.374ZM39.557 50.2912C39.7471 49.3721 39.8426 48.4359 39.842 47.4972V44.8592C40.3312 45.1394 40.7331 45.5498 41.0029 46.0448C41.2728 46.5398 41.4 47.0999 41.3704 47.6629C41.3409 48.2259 41.1558 48.7696 40.8356 49.2337C40.5155 49.6977 40.0728 50.0638 39.557 50.2912ZM25.712 18.3842H26.384C26.7023 18.3842 27.0075 18.5107 27.2325 18.7357C27.4576 18.9608 27.584 19.266 27.584 19.5842C27.5838 19.6819 27.5724 19.7792 27.55 19.8742L26.389 24.5162H25.714L24.554 19.8772C24.5307 19.7813 24.519 19.683 24.519 19.5842C24.519 19.2672 24.6445 18.963 24.868 18.7382C25.0915 18.5133 25.395 18.3861 25.712 18.3842ZM14.83 23.8902L17.016 28.2632L19.757 26.8922L17.3 21.9722C18.6072 21.17 20.0398 20.593 21.538 20.2652C21.556 20.3822 21.551 20.5012 21.581 20.6162L23.325 27.5792H28.781L30.525 20.6132C30.553 20.5002 30.548 20.3822 30.568 20.2652C32.0641 20.594 33.4945 21.171 34.8 21.9722L32.339 26.8932L35.08 28.2642L37.268 23.8892C39.1386 25.735 40.4395 28.0793 41.016 30.6432H11.08C11.6579 28.0794 12.9594 25.7363 14.83 23.8902ZM9.19401 33.7072H42.9C43.3065 33.7072 43.6963 33.8687 43.9837 34.1561C44.2711 34.4435 44.4325 34.8333 44.4325 35.2397C44.4325 35.6462 44.2711 36.036 43.9837 36.3234C43.6963 36.6108 43.3065 36.7722 42.9 36.7722H9.19401C8.78757 36.7722 8.39777 36.6108 8.11037 36.3234C7.82297 36.036 7.66151 35.6462 7.66151 35.2397C7.66151 34.8333 7.82297 34.4435 8.11037 34.1561C8.39777 33.8687 8.78757 33.7072 9.19401 33.7072ZM12.259 41.5862C11.7218 41.7267 11.2064 41.94 10.727 42.2202V39.8362H12.259V41.5862ZM10.727 47.4972C10.7286 46.9618 10.871 46.4362 11.1399 45.9732C11.4088 45.5102 11.7948 45.126 12.259 44.8592V47.4972C12.2585 48.4359 12.354 49.3721 12.544 50.2912C12.0037 50.0506 11.5446 49.6588 11.222 49.163C10.8994 48.6672 10.7271 48.0887 10.726 47.4972H10.727ZM15.327 47.4972V39.8362H36.774V47.4972C36.774 50.342 35.644 53.0702 33.6324 55.0817C31.6209 57.0932 28.8927 58.2232 26.048 58.2232C23.2033 58.2232 20.4751 57.0932 18.4636 55.0817C16.4521 53.0702 15.322 50.342 15.322 47.4972H15.327ZM26.053 61.2872C27.6208 61.2859 29.1768 61.0153 30.653 60.4872V62.8242C30.6753 63.4419 30.573 64.0577 30.352 64.6349C30.131 65.2121 29.796 65.7389 29.3669 66.1838C28.9378 66.6286 28.4235 66.9825 27.8547 67.2241C27.2858 67.4658 26.6741 67.5903 26.056 67.5903C25.438 67.5903 24.8262 67.4658 24.2574 67.2241C23.6885 66.9825 23.1742 66.6286 22.7451 66.1838C22.316 65.7389 21.981 65.2121 21.76 64.6349C21.5391 64.0577 21.4367 63.4419 21.459 62.8242V60.4872C22.9317 61.0144 24.4838 61.2853 26.048 61.2882L26.053 61.2872ZM3.06501 73.3362C3.06363 72.1136 3.4478 70.9216 4.16288 69.9299C4.87795 68.9382 5.88753 68.1971 7.04801 67.8122L12.259 66.0742V69.2162C12.2623 70.3896 12.0327 71.5518 11.5837 72.6358C11.1346 73.7198 10.475 74.7039 9.64301 75.5312L9.19401 75.9812V85.8082H3.06501V73.3362ZM49.033 85.8082H42.9V75.9762L42.451 75.5262C41.619 74.6989 40.9594 73.7148 40.5104 72.6308C40.0613 71.5468 39.8318 70.3845 39.835 69.2112V66.0692L45.046 67.8072C46.2079 68.1919 47.2187 68.9335 47.9344 69.9262C48.6501 70.919 49.0342 72.1124 49.032 73.3362L49.033 85.8082ZM59.758 82.7362C58.3297 82.7334 56.9162 82.4454 55.6007 81.889C54.2851 81.3327 53.094 80.5192 52.097 79.4962V73.3362C52.0911 71.2481 51.3473 69.2292 49.997 67.6362C50.7863 65.8779 52.0353 64.365 53.6124 63.2571C55.1896 62.1492 57.0364 61.4873 58.9582 61.3411C60.88 61.1949 62.8057 61.57 64.5322 62.4266C66.2588 63.2833 67.7222 64.5899 68.7683 66.2087C69.8144 67.8275 70.4044 69.6985 70.4762 71.6245C70.5479 73.5506 70.0987 75.4603 69.1759 77.1524C68.2531 78.8446 66.8909 80.2564 65.2329 81.2391C63.5748 82.2218 61.6824 82.739 59.755 82.7362H59.758Z" fill="#002240"/>
<path d="M95.0001 18.3842C95.0037 15.2462 94.2043 12.1595 92.6778 9.41774C91.1513 6.67602 88.9485 4.37055 86.2792 2.72073C83.6099 1.0709 80.5627 0.131622 77.4278 -0.00773429C74.2929 -0.147091 71.1744 0.518114 68.3692 1.92458C65.564 3.33104 63.1654 5.43197 61.4017 8.02743C59.6379 10.6229 58.5677 13.6265 58.2928 16.7525C58.018 19.8785 58.5477 23.0228 59.8314 25.8862C61.1152 28.7496 63.1104 31.2368 65.6272 33.1112C65.7272 33.1832 65.8032 33.2822 65.8932 33.3642C65.2969 33.8917 64.8492 34.5662 64.5944 35.3204C64.3397 36.0746 64.2869 36.8824 64.4412 37.6634C64.5955 38.4444 64.9516 39.1714 65.4741 39.772C65.9965 40.3727 66.6671 40.8261 67.4192 41.0872V41.3682C67.4065 42.5836 67.6349 43.7894 68.0912 44.916C68.5476 46.0425 69.2227 47.0674 70.0777 47.9313C70.9326 48.7952 71.9504 49.481 73.0721 49.9491C74.1938 50.4171 75.3972 50.6581 76.6127 50.6581C77.8281 50.6581 79.0315 50.4171 80.1532 49.9491C81.2749 49.481 82.2927 48.7952 83.1476 47.9313C84.0026 47.0674 84.6777 46.0425 85.1341 44.916C85.5904 43.7894 85.8188 42.5836 85.8062 41.3682V41.0872C86.5589 40.826 87.2301 40.3721 87.7527 39.7706C88.2754 39.1692 88.6313 38.4413 88.785 37.6595C88.9387 36.8776 88.8847 36.0692 88.6286 35.3146C88.3725 34.5601 87.9231 33.8859 87.3252 33.3592C87.3952 33.2982 87.4572 33.2182 87.5322 33.1592C89.8422 31.4478 91.7203 29.2203 93.0169 26.6544C94.3135 24.0885 94.9926 21.2551 95.0001 18.3802V18.3842ZM76.6132 47.5002C74.9881 47.4986 73.4301 46.8524 72.2811 45.7033C71.132 44.5543 70.4857 42.9963 70.4842 41.3712H82.7422C82.7406 42.9963 82.0943 44.5543 80.9452 45.7033C79.7962 46.8524 78.2382 47.4986 76.6132 47.5002ZM84.2742 38.3062H68.9521C68.5457 38.3062 68.1559 38.1448 67.8685 37.8574C67.5811 37.57 67.4196 37.1802 67.4196 36.7737C67.4196 36.3673 67.5811 35.9775 67.8685 35.6901C68.1559 35.4027 68.5457 35.2412 68.9521 35.2412H84.2751C84.6816 35.2412 85.0714 35.4027 85.3588 35.6901C85.6462 35.9775 85.8076 36.3673 85.8076 36.7737C85.8076 37.1802 85.6462 37.57 85.3588 37.8574C85.0714 38.1448 84.6806 38.3062 84.2742 38.3062ZM72.0162 16.8522H70.4842C70.1812 16.8522 69.885 16.7624 69.633 16.594C69.3811 16.4257 69.1847 16.1864 69.0688 15.9065C68.9528 15.6266 68.9225 15.3185 68.9816 15.0214C69.0407 14.7242 69.1866 14.4512 69.4009 14.2369C69.6151 14.0227 69.8881 13.8768 70.1853 13.8177C70.4824 13.7586 70.7905 13.7889 71.0704 13.9049C71.3504 14.0208 71.5896 14.2172 71.758 14.4691C71.9263 14.721 72.0162 15.0172 72.0162 15.3202V16.8522ZM78.1452 32.1752H75.0802V19.9172H78.1452V32.1752ZM84.2742 32.1752H81.2082V19.9172H82.7402C83.65 19.9172 84.5393 19.6474 85.2958 19.142C86.0522 18.6365 86.6419 17.9181 86.99 17.0776C87.3382 16.237 87.4293 15.3121 87.2518 14.4198C87.0743 13.5275 86.6362 12.7079 85.9929 12.0645C85.3495 11.4212 84.5299 10.9831 83.6376 10.8056C82.7453 10.6281 81.8204 10.7192 80.9798 11.0674C80.1393 11.4156 79.4209 12.0051 78.9154 12.7616C78.4099 13.5181 78.1402 14.4074 78.1402 15.3172V16.8492H75.0752V15.3202C75.0752 14.4104 74.8054 13.5211 74.2999 12.7646C73.7945 12.0081 73.076 11.4186 72.2355 11.0704C71.395 10.7222 70.4701 10.6311 69.5778 10.8086C68.6854 10.9861 67.8658 11.4242 67.2225 12.0675C66.5791 12.7109 66.1411 13.5305 65.9636 14.4228C65.7861 15.3151 65.8771 16.24 66.2253 17.0806C66.5735 17.9211 67.1631 18.6395 67.9195 19.145C68.676 19.6504 69.5654 19.9202 70.4752 19.9202H72.0072V32.1752H68.9422C68.9292 32.1752 68.9142 32.1802 68.9012 32.1802C68.4942 31.604 68.0046 31.0908 67.4481 30.6572C65.3544 29.0947 63.6951 27.0225 62.628 24.6378C61.5609 22.2531 61.1216 19.635 61.3517 17.0326C61.5818 14.4302 62.4738 11.9299 63.9427 9.76943C65.4117 7.60896 67.4089 5.86014 69.7444 4.68924C72.0799 3.51834 74.6761 2.96429 77.2861 3.07976C79.8962 3.19522 82.4332 3.97637 84.6562 5.34894C86.8792 6.7215 88.7141 8.63986 89.9866 10.9216C91.2591 13.2034 91.9267 15.7727 91.9261 18.3852C91.9365 20.7833 91.3784 23.1496 90.2976 25.2902C89.2168 27.4309 87.644 29.2849 85.7082 30.7002C85.1665 31.1203 84.6908 31.6191 84.2971 32.1802C84.2881 32.1802 84.2801 32.1802 84.2711 32.1802L84.2742 32.1752ZM81.2082 16.8522V15.3202C81.2082 15.0172 81.298 14.721 81.4663 14.4691C81.6347 14.2172 81.874 14.0208 82.1539 13.9049C82.4338 13.7889 82.7419 13.7586 83.039 13.8177C83.3362 13.8768 83.6092 14.0227 83.8235 14.2369C84.0377 14.4512 84.1836 14.7242 84.2427 15.0214C84.3018 15.3185 84.2715 15.6266 84.1555 15.9065C84.0396 16.1864 83.8432 16.4257 83.5913 16.594C83.3394 16.7624 83.0432 16.8522 82.7402 16.8522H81.2082Z" fill="#002240"/>
<path d="M29.1128 73.5454H35.2418V76.6104H29.1128V73.5454Z" fill="#002240"/>
</g>
<defs>
<clipPath id="clip0_1807_13">
<rect width="95" height="94.997" fill="white"/>
</clipPath>
</defs>
</svg>
