<svg width="85" height="85" viewBox="0 0 85 85" fill="none" xmlns="http://www.w3.org/2000/svg">
<g clip-path="url(#clip0_1807_2)">
<path d="M80.615 66.4579L63.723 49.5659L63.015 50.2739C62.4514 50.8375 61.687 51.1541 60.89 51.1541C60.0929 51.1541 59.3285 50.8375 58.765 50.2739C58.2014 49.7103 57.8847 48.9459 57.8847 48.1489C57.8847 47.3518 58.2014 46.5875 58.765 46.0239L59.473 45.3159L55.2249 41.0679L41.0649 55.2289L45.313 59.4769L46.021 58.7689C46.5843 58.2055 47.3483 57.8891 48.145 57.8891C48.9416 57.8891 49.7056 58.2055 50.269 58.7689C50.8323 59.3322 51.1487 60.0962 51.1487 60.8929C51.1487 61.6895 50.8323 62.4536 50.269 63.0169L49.5609 63.7249L66.4529 80.6169C66.9648 81.1253 67.5301 81.5769 68.1389 81.9639L81.965 68.1429C81.5769 67.5343 81.1242 66.9694 80.615 66.4579Z" fill='#fedb03'/>
<path d="M0.186809 7.79086L5.85081 17.7029C5.94535 17.8687 6.07252 18.0136 6.22462 18.129C6.37673 18.2443 6.55062 18.3276 6.73581 18.3739L12.0208 19.6949L30.1458 37.8209L32.1458 35.8209L13.7398 17.4099C13.5586 17.2286 13.3315 17.1 13.0828 17.0379L8.00481 15.7629L3.18081 7.31886L7.31581 3.18386L15.7638 8.01086L17.0378 13.0889C17.0998 13.3382 17.2284 13.5659 17.4098 13.7479L35.8198 32.1569L37.8198 30.1569L19.6968 12.0269L18.3758 6.74686C18.3297 6.56147 18.2465 6.38736 18.1311 6.23507C18.0158 6.08277 17.8708 5.95547 17.7048 5.86086L7.79181 0.196861C7.52242 0.0441504 7.2104 -0.0160445 6.90354 0.0254964C6.59668 0.0670374 6.3119 0.208024 6.09281 0.426861L0.428809 6.08886C0.207061 6.30655 0.0631959 6.59122 0.0194532 6.89886C-0.0242895 7.20651 0.0345266 7.51999 0.186809 7.79086Z" fill="#002240"/>
<path d="M57.0568 25.9071L25.9038 57.0601L27.9063 59.0626L59.0593 27.9096L57.0568 25.9071Z" fill="#002240"/>
<path d="M22.454 60.164C22.3281 59.9545 22.1502 59.7811 21.9374 59.6607C21.7247 59.5403 21.4844 59.477 21.24 59.4771H12.743C12.4985 59.477 12.2583 59.5403 12.0455 59.6607C11.8328 59.7811 11.6548 59.9545 11.529 60.164L7.28098 67.244C7.14888 67.4645 7.0791 67.7166 7.0791 67.9735C7.0791 68.2305 7.14888 68.4826 7.28098 68.703L11.529 75.7831C11.6548 75.9926 11.8328 76.166 12.0455 76.2864C12.2583 76.4068 12.4985 76.47 12.743 76.47H21.243C21.4874 76.47 21.7277 76.4068 21.9404 76.2864C22.1532 76.166 22.3311 75.9926 22.457 75.7831L26.705 68.703C26.8371 68.4826 26.9069 68.2305 26.9069 67.9735C26.9069 67.7166 26.8371 67.4645 26.705 67.244L22.454 60.164ZM20.443 73.638H13.543L10.143 67.974L13.543 62.31H20.443L23.843 67.974L20.443 73.638Z" fill="#002240"/>
<path d="M67.9709 33.9879C70.5543 33.9964 73.1053 33.4139 75.4289 32.2848C77.7525 31.1557 79.7869 29.51 81.3766 27.4737C82.9663 25.4374 84.0691 23.0644 84.6006 20.5363C85.132 18.0082 85.0781 15.392 84.4429 12.8879C84.3824 12.6446 84.2585 12.4218 84.0836 12.2421C83.9088 12.0625 83.6894 11.9324 83.4479 11.8653C83.2064 11.7982 82.9514 11.7964 82.7089 11.8601C82.4665 11.9238 82.2453 12.0507 82.0679 12.2279L73.2529 21.0369L66.2589 18.7069L63.9269 11.7139L72.7419 2.89992C72.9196 2.72219 73.0468 2.50041 73.1105 2.25733C73.1741 2.01424 73.172 1.75859 73.1044 1.51659C73.0367 1.27459 72.9059 1.05493 72.7253 0.880145C72.5448 0.705358 72.321 0.581725 72.0769 0.521922C69.5725 -0.112377 66.9562 -0.165448 64.4281 0.366769C61.9 0.898985 59.5272 2.00239 57.491 3.59257C55.4549 5.18275 53.8095 7.21758 52.6806 9.54139C51.5517 11.8652 50.9693 14.4164 50.9779 16.9999C50.9812 18.1147 51.0964 19.2262 51.3219 20.3179L20.3099 51.3249C19.2172 51.0999 18.1046 50.9846 16.9889 50.9809C13.6283 50.9823 10.3436 51.9801 7.55004 53.8482C4.75648 55.7162 2.57953 58.3706 1.29444 61.4758C0.00935757 64.581 -0.326162 67.9975 0.330307 71.2934C0.986776 74.5892 2.60575 77.6164 4.98255 79.9923C7.35934 82.3681 10.3872 83.9858 13.6833 84.6409C16.9795 85.296 20.3958 84.9591 23.5005 83.6727C26.6051 82.3864 29.2587 80.2083 31.1256 77.414C32.9925 74.6197 33.9889 71.3345 33.9889 67.9739C33.9857 66.8592 33.8705 65.7476 33.6449 64.6559L41.0689 57.2319L44.3159 60.4789C44.5815 60.7435 44.9411 60.892 45.3159 60.892C45.6908 60.892 46.0504 60.7435 46.3159 60.4789L47.0239 59.7709C47.3214 59.4727 47.7251 59.3048 48.1463 59.3043C48.5675 59.3037 48.9717 59.4705 49.2699 59.7679C49.5682 60.0654 49.736 60.4691 49.7366 60.8903C49.7372 61.3115 49.5704 61.7157 49.2729 62.0139L48.5649 62.7219C48.3004 62.9875 48.1519 63.3471 48.1519 63.7219C48.1519 64.0968 48.3004 64.4563 48.5649 64.7219L65.4529 81.6189C66.5067 82.697 67.7632 83.5559 69.1503 84.1462C70.5374 84.7366 72.0275 85.0467 73.5349 85.0587C75.0424 85.0707 76.5373 84.7844 77.9336 84.2163C79.3299 83.6481 80.6 82.8093 81.6708 81.7483C82.7415 80.6872 83.5918 79.4247 84.1727 78.0337C84.7535 76.6426 85.0534 75.1503 85.0551 73.6429C85.0568 72.1354 84.7602 70.6425 84.1825 69.2501C83.6048 67.8577 82.7573 66.5934 81.6889 65.5299L81.6149 65.4559L64.7239 48.5639C64.4584 48.2994 64.0988 48.1509 63.7239 48.1509C63.3491 48.1509 62.9895 48.2994 62.7239 48.5639L62.0159 49.2719C61.7185 49.5702 61.3148 49.738 60.8936 49.7386C60.4724 49.7391 60.0682 49.5724 59.7699 49.2749C59.4717 48.9775 59.3038 48.5738 59.3033 48.1525C59.3027 47.7313 59.4695 47.3272 59.7669 47.0289L60.4749 46.3209C60.7395 46.0553 60.888 45.6958 60.888 45.3209C60.888 44.9461 60.7395 44.5865 60.4749 44.3209L57.2289 41.0689L64.6529 33.6449C65.7448 33.8694 66.8563 33.9843 67.9709 33.9879ZM73.5349 82.1339C72.5061 82.133 71.4859 81.947 70.5229 81.5849L81.5819 70.5249C82.0707 71.825 82.2369 73.2242 82.0661 74.6026C81.8954 75.981 81.3928 77.2973 80.6016 78.4388C79.8103 79.5803 78.754 80.5129 77.5232 81.1564C76.2924 81.8 74.9238 82.1354 73.5349 82.1339ZM57.4889 45.3309C56.7769 46.178 56.4086 47.2613 56.4567 48.3668C56.5049 49.4723 56.9661 50.5195 57.7491 51.3014C58.5321 52.0833 59.58 52.5429 60.6856 52.5895C61.7911 52.6361 62.8739 52.2662 63.7199 51.5529L79.6139 67.4579C79.7869 67.6309 79.9479 67.8129 80.1039 67.9989L67.9959 80.1069C67.8099 79.9509 67.6279 79.7899 67.4549 79.6169L51.5549 63.7119C52.2637 62.8644 52.6293 61.7821 52.5798 60.6784C52.5302 59.5747 52.0691 58.5296 51.2873 57.7489C50.5056 56.9682 49.4597 56.5087 48.356 56.4607C47.2522 56.4128 46.1705 56.78 45.3239 57.4899L43.0579 55.2239L55.2259 43.0709L57.4889 45.3309ZM63.2069 31.0879L31.0889 63.2059C30.9157 63.3787 30.7902 63.5934 30.7247 63.8291C30.6591 64.0648 30.6558 64.3135 30.7149 64.5509C31.4851 67.5773 31.2402 70.7729 30.0179 73.6465C28.7955 76.5202 26.6635 78.9131 23.9492 80.4574C21.235 82.0017 18.0887 82.6121 14.9939 82.1947C11.8991 81.7773 9.02691 80.3553 6.81873 78.1471C4.61055 75.9389 3.18852 73.0668 2.77114 69.972C2.35377 66.8772 2.96414 63.7309 4.50846 61.0166C6.05279 58.3024 8.44563 56.1703 11.3193 54.948C14.193 53.7257 17.3885 53.4808 20.4149 54.2509C20.6524 54.3087 20.9007 54.3047 21.1362 54.2392C21.3716 54.1737 21.5864 54.049 21.7599 53.8769L53.8769 21.7619C54.0496 21.5888 54.1745 21.374 54.2397 21.1383C54.3049 20.9027 54.3081 20.6542 54.2489 20.4169C53.6982 18.2642 53.6643 16.0119 54.15 13.8436C54.6356 11.6753 55.627 9.65254 57.0434 7.94041C58.4597 6.22829 60.2607 4.87529 62.2995 3.99183C64.3384 3.10837 66.5572 2.71949 68.7749 2.85692L61.3049 10.3299C61.1187 10.5157 60.988 10.7497 60.9274 11.0057C60.8668 11.2616 60.8788 11.5294 60.9619 11.7789L63.7939 20.2789C63.8638 20.488 63.9815 20.6778 64.1378 20.8332C64.2941 20.9886 64.4845 21.1053 64.6939 21.1739L73.1889 23.9999C73.4383 24.0834 73.706 24.0958 73.9619 24.0355C74.2179 23.9753 74.452 23.8449 74.6379 23.6589L82.1079 16.1889C82.1249 16.4599 82.1339 16.7269 82.1339 16.9889C82.145 19.1428 81.6621 21.2704 80.7223 23.2085C79.7825 25.1465 78.4108 26.8432 76.7128 28.1682C75.0147 29.4932 73.0354 30.4112 70.9271 30.8517C68.8187 31.2921 66.6375 31.2433 64.5509 30.7089C64.3137 30.6497 64.0652 30.6528 63.8295 30.718C63.5938 30.7832 63.379 30.9082 63.2059 31.0809L63.2069 31.0879Z" fill="#002240"/>
<path d="M59.0562 57.0605L57.0537 59.063L71.2142 73.2235L73.2168 71.221L59.0562 57.0605Z" fill="#002240"/>
</g>
<defs>
<clipPath id="clip0_1807_2">
<rect width="85" height="85.003" fill="white"/>
</clipPath>
</defs>
</svg>
