<svg width="95" height="95" viewBox="0 0 95 95" fill="none" xmlns="http://www.w3.org/2000/svg">
<g clip-path="url(#clip0_1807_37)">
<path d="M53.6291 11.76H50.5641V4.6C50.5636 4.19385 50.402 3.80449 50.1148 3.5173C49.8276 3.23011 49.4382 3.06853 49.0321 3.068H45.9711C45.5644 3.06773 45.1743 3.22896 44.8865 3.51624C44.5986 3.80351 44.4366 4.19333 44.4361 4.6V11.76H41.3711V4.6C41.3711 3.38 41.8557 2.20998 42.7184 1.34731C43.5811 0.484641 44.7511 0 45.9711 0L49.0351 0C50.2551 0 51.4251 0.484641 52.2878 1.34731C53.1504 2.20998 53.6351 3.38 53.6351 4.6L53.6291 11.76Z" fill="#002240"/>
<path d="M76.6132 38.3062H73.5522C72.3322 38.3062 71.1621 38.7908 70.2995 39.6535C69.4368 40.5161 68.9521 41.6862 68.9521 42.9062V55.1642H81.2101V42.9062C81.2101 41.6867 80.7259 40.5171 79.8639 39.6545C79.0019 38.7919 77.8326 38.3069 76.6132 38.3062Z" fill="#fedb03"/>
<path d="M68.9521 61.29V66.521L75.0811 72.65L81.2101 66.521V61.29H68.9521Z" fill="#fedb03"/>
<path d="M68.9521 44.436H81.2101V47.501H68.9521V44.436Z" fill="#002240"/>
<path d="M84.2739 53.6288H70.1259L55.4139 29.1108L52.7859 30.6868L66.5519 53.6278H61.6449L48.8279 31.4098L47.4989 32.1758L46.1279 31.4908L30.2939 63.1608C30.1158 63.5199 29.8407 63.8219 29.4998 64.0326C29.1588 64.2433 28.7657 64.3542 28.3649 64.3528H28.2059C27.8347 64.3534 27.4696 64.258 27.146 64.076C26.8225 63.8939 26.5515 63.6314 26.3592 63.3138C26.167 62.9962 26.06 62.6343 26.0488 62.2633C26.0375 61.8922 26.1223 61.5245 26.2949 61.1958L42.2949 30.6458L39.5809 29.2238L23.5809 59.7738C23.2504 60.402 23.0521 61.0911 22.998 61.7988C22.944 62.5065 23.0353 63.2178 23.2665 63.8888C23.4978 64.5599 23.8639 65.1765 24.3424 65.7007C24.8209 66.2249 25.4017 66.6456 26.0489 66.9368V72.0188H29.1139V67.3678C29.9489 67.2502 30.7426 66.9307 31.4262 66.437C32.1098 65.9434 32.6626 65.2904 33.0369 64.5348L40.0209 50.5668H56.3389L58.3229 54.0058C57.833 54.2644 57.4226 54.6513 57.1357 55.1251C56.8488 55.599 56.696 56.1419 56.6939 56.6958V59.7608C56.6947 60.5735 57.0179 61.3526 57.5925 61.9272C58.1671 62.5019 58.9463 62.825 59.7589 62.8258H84.2739C85.0865 62.825 85.8657 62.5019 86.4403 61.9272C87.0149 61.3526 87.3381 60.5735 87.3389 59.7608V56.6958C87.3378 55.8834 87.0146 55.1045 86.44 54.5301C85.8654 53.9557 85.0864 53.6326 84.2739 53.6318V53.6288ZM47.5959 35.4098L51.0349 41.3708H44.6159L47.5959 35.4098ZM43.0839 44.4348H45.9669V47.4998H41.5509L43.0839 44.4348ZM49.0319 47.4998V44.4348H52.8029L54.5719 47.4998H49.0319ZM84.2739 59.7578H59.7579V56.6928H84.2739V59.7578Z" fill="#002240"/>
<path d="M47.4958 88.8712C37.3318 88.8775 27.5223 85.1363 19.9438 78.3632L21.9848 76.0772C29.0132 82.351 38.1069 85.8149 47.5281 85.807C56.9492 85.799 66.0371 82.3198 73.0548 76.0342L75.1008 78.3142C67.5173 85.1193 57.685 88.8795 47.4958 88.8712Z" fill="#002240"/>
<path d="M47.5002 94.9958C35.8297 95.0027 24.5664 90.7064 15.8652 82.9288L17.9062 80.6428C26.0593 87.9215 36.6088 91.9403 47.5383 91.9311C58.4677 91.9219 69.0104 87.8852 77.1512 80.5928L79.1972 82.8758C70.4871 90.6874 59.1971 95.004 47.4972 94.9958H47.5002Z" fill="#002240"/>
<path d="M39.563 3.032C39.563 3.335 39.4732 3.6312 39.3048 3.88313C39.1365 4.13507 38.8972 4.33143 38.6173 4.44738C38.3374 4.56334 38.0293 4.59368 37.7321 4.53456C37.435 4.47545 37.162 4.32954 36.9477 4.11529C36.7335 3.90103 36.5876 3.62806 36.5285 3.33088C36.4693 3.0337 36.4997 2.72567 36.6156 2.44573C36.7316 2.16579 36.928 1.92653 37.1799 1.75819C37.4318 1.58985 37.728 1.5 38.031 1.5C38.4373 1.5 38.827 1.66141 39.1143 1.94871C39.4016 2.23602 39.563 2.62569 39.563 3.032Z" fill="#002240"/>
<path d="M31.0201 7.38503C31.0201 7.68803 30.9302 7.98423 30.7619 8.23616C30.5935 8.4881 30.3543 8.68446 30.0743 8.80041C29.7944 8.91636 29.4863 8.9467 29.1892 8.88759C28.892 8.82848 28.619 8.68257 28.4048 8.46831C28.1905 8.25406 28.0446 7.98108 27.9855 7.6839C27.9264 7.38673 27.9567 7.07869 28.0727 6.79876C28.1886 6.51882 28.385 6.27955 28.6369 6.11122C28.8889 5.94288 29.185 5.85303 29.488 5.85303C29.8944 5.85303 30.284 6.01443 30.5713 6.30174C30.8586 6.58905 31.0201 6.97872 31.0201 7.38503Z" fill="#002240"/>
<path d="M24.2408 14.1638C24.2408 14.4668 24.1509 14.763 23.9826 15.015C23.8142 15.2669 23.575 15.4633 23.295 15.5792C23.0151 15.6952 22.7071 15.7255 22.4099 15.6664C22.1127 15.6073 21.8397 15.4614 21.6255 15.2471C21.4112 15.0329 21.2653 14.7599 21.2062 14.4627C21.1471 14.1655 21.1774 13.8575 21.2934 13.5776C21.4093 13.2976 21.6057 13.0584 21.8576 12.89C22.1096 12.7217 22.4058 12.6318 22.7088 12.6318C23.1151 12.6318 23.5047 12.7932 23.792 13.0805C24.0793 13.3678 24.2408 13.7575 24.2408 14.1638Z" fill="#002240"/>
<path d="M19.8911 22.7078C19.8911 23.0108 19.8013 23.307 19.633 23.5589C19.4646 23.8109 19.2254 24.0072 18.9454 24.1232C18.6655 24.2391 18.3574 24.2695 18.0603 24.2103C17.7631 24.1512 17.4901 24.0053 17.2759 23.7911C17.0616 23.5768 16.9157 23.3038 16.8566 23.0067C16.7975 22.7095 16.8278 22.4014 16.9438 22.1215C17.0597 21.8416 17.2561 21.6023 17.508 21.434C17.76 21.2656 18.0561 21.1758 18.3591 21.1758C18.7655 21.1758 19.1551 21.3372 19.4424 21.6245C19.7297 21.9118 19.8911 22.3015 19.8911 22.7078Z" fill="#002240"/>
<path d="M18.3882 32.177C18.3882 32.48 18.2984 32.7761 18.1301 33.028C17.9618 33.28 17.7226 33.4763 17.4427 33.5923C17.1628 33.7083 16.8549 33.7387 16.5577 33.6797C16.2606 33.6206 15.9876 33.4748 15.7733 33.2607C15.559 33.0465 15.413 32.7736 15.3538 32.4765C15.2946 32.1794 15.3248 31.8714 15.4406 31.5914C15.5564 31.3115 15.7526 31.0721 16.0044 30.9037C16.2562 30.7352 16.5523 30.6452 16.8552 30.645C17.0565 30.6449 17.2558 30.6844 17.4418 30.7614C17.6278 30.8383 17.7968 30.9511 17.9392 31.0934C18.0815 31.2357 18.1945 31.4046 18.2715 31.5905C18.3486 31.7765 18.3882 31.9757 18.3882 32.177Z" fill="#002240"/>
<path d="M19.8911 41.6472C19.8911 41.9502 19.8013 42.2464 19.633 42.4984C19.4646 42.7503 19.2254 42.9467 18.9454 43.0626C18.6655 43.1786 18.3574 43.2089 18.0603 43.1498C17.7631 43.0907 17.4901 42.9448 17.2759 42.7305C17.0616 42.5163 16.9157 42.2433 16.8566 41.9461C16.7975 41.6489 16.8278 41.3409 16.9438 41.061C17.0597 40.781 17.2561 40.5418 17.508 40.3734C17.76 40.2051 18.0561 40.1152 18.3591 40.1152C18.7655 40.1152 19.1551 40.2766 19.4424 40.5639C19.7297 40.8513 19.8911 41.2409 19.8911 41.6472Z" fill="#002240"/>
<path d="M24.2408 50.1902C24.2408 50.4932 24.1509 50.7894 23.9826 51.0414C23.8142 51.2933 23.575 51.4896 23.295 51.6056C23.0151 51.7215 22.7071 51.7519 22.4099 51.6928C22.1127 51.6337 21.8397 51.4878 21.6255 51.2735C21.4112 51.0592 21.2653 50.7863 21.2062 50.4891C21.1471 50.1919 21.1774 49.8839 21.2934 49.6039C21.4093 49.324 21.6057 49.0847 21.8576 48.9164C22.1096 48.7481 22.4058 48.6582 22.7088 48.6582C23.1151 48.6582 23.5047 48.8196 23.792 49.1069C24.0793 49.3942 24.2408 49.7839 24.2408 50.1902Z" fill="#002240"/>
<path d="M58.501 3.032C58.501 3.335 58.4112 3.6312 58.2428 3.88313C58.0745 4.13507 57.8352 4.33143 57.5553 4.44738C57.2753 4.56334 56.9673 4.59368 56.6702 4.53456C56.373 4.47545 56.1 4.32954 55.8857 4.11529C55.6715 3.90103 55.5256 3.62806 55.4664 3.33088C55.4073 3.0337 55.4377 2.72567 55.5536 2.44573C55.6696 2.16579 55.8659 1.92653 56.1179 1.75819C56.3698 1.58985 56.666 1.5 56.969 1.5C57.3753 1.5 57.765 1.66141 58.0523 1.94871C58.3396 2.23602 58.501 2.62569 58.501 3.032Z" fill="#002240"/>
<path d="M67.0449 7.38503C67.0449 7.68803 66.9551 7.98423 66.7868 8.23616C66.6184 8.4881 66.3792 8.68446 66.0992 8.80041C65.8193 8.91636 65.5113 8.9467 65.2141 8.88759C64.9169 8.82848 64.6439 8.68257 64.4297 8.46831C64.2154 8.25406 64.0695 7.98108 64.0104 7.6839C63.9513 7.38673 63.9816 7.07869 64.0976 6.79876C64.2135 6.51882 64.4099 6.27955 64.6618 6.11122C64.9138 5.94288 65.21 5.85303 65.513 5.85303C65.9193 5.85303 66.3089 6.01443 66.5962 6.30174C66.8836 6.58905 67.0449 6.97872 67.0449 7.38503Z" fill="#002240"/>
<path d="M73.8248 14.1638C73.8248 14.4668 73.7349 14.763 73.5665 15.015C73.3982 15.2669 73.159 15.4633 72.879 15.5792C72.5991 15.6952 72.291 15.7255 71.9939 15.6664C71.6967 15.6073 71.4237 15.4614 71.2095 15.2471C70.9952 15.0329 70.8493 14.7599 70.7902 14.4627C70.7311 14.1655 70.7614 13.8575 70.8774 13.5776C70.9933 13.2976 71.1897 13.0584 71.4416 12.89C71.6935 12.7217 71.9897 12.6318 72.2927 12.6318C72.6991 12.6318 73.0887 12.7932 73.376 13.0805C73.6633 13.3678 73.8248 13.7575 73.8248 14.1638Z" fill="#002240"/>
<path d="M78.1768 22.7078C78.1768 23.0108 78.0869 23.307 77.9186 23.5589C77.7503 23.8109 77.511 24.0072 77.2311 24.1232C76.9511 24.2391 76.6431 24.2695 76.3459 24.2103C76.0487 24.1512 75.7757 24.0053 75.5615 23.7911C75.3472 23.5768 75.2013 23.3038 75.1422 23.0067C75.0831 22.7095 75.1134 22.4014 75.2294 22.1215C75.3453 21.8416 75.5417 21.6023 75.7937 21.434C76.0456 21.2656 76.3418 21.1758 76.6448 21.1758C77.0511 21.1758 77.4408 21.3372 77.7281 21.6245C78.0154 21.9118 78.1768 22.3015 78.1768 22.7078Z" fill="#002240"/>
<path d="M79.6778 32.177C79.6778 32.48 79.588 32.7761 79.4197 33.028C79.2514 33.28 79.0122 33.4763 78.7323 33.5923C78.4524 33.7083 78.1444 33.7387 77.8473 33.6797C77.5501 33.6206 77.2771 33.4748 77.0628 33.2607C76.8486 33.0465 76.7025 32.7736 76.6433 32.4765C76.5841 32.1794 76.6143 31.8714 76.7301 31.5914C76.8459 31.3115 77.0421 31.0721 77.2939 30.9037C77.5457 30.7352 77.8418 30.6452 78.1448 30.645C78.3461 30.6449 78.5454 30.6844 78.7314 30.7614C78.9174 30.8383 79.0863 30.9511 79.2287 31.0934C79.3711 31.2357 79.484 31.4046 79.561 31.5905C79.6381 31.7765 79.6778 31.9757 79.6778 32.177Z" fill="#002240"/>
<path d="M0 45.9678H3.065V49.0328H0V45.9678Z" fill="#002240"/>
<path d="M6.12891 45.9678H9.1939V49.0328H6.12891V45.9678Z" fill="#002240"/>
<path d="M3.06494 42.9028H6.12994V45.9678H3.06494V42.9028Z" fill="#002240"/>
<path d="M3.06494 49.0322H6.12994V52.0962H3.06494V49.0322Z" fill="#002240"/>
<path d="M85.8062 79.6768H88.8712V82.7418H85.8062V79.6768Z" fill="#002240"/>
<path d="M91.9351 79.6768H95.0001V82.7418H91.9351V79.6768Z" fill="#002240"/>
<path d="M88.8711 76.6128H91.9361V79.6778H88.8711V76.6128Z" fill="#002240"/>
<path d="M88.8711 82.7422H91.9361V85.8072H88.8711V82.7422Z" fill="#002240"/>
<path d="M6.12891 67.4189H9.1939V70.4839H6.12891V67.4189Z" fill="#002240"/>
<path d="M12.2578 67.4189H15.3228V70.4839H12.2578V67.4189Z" fill="#002240"/>
<path d="M9.19385 64.355H12.2588V67.42H9.19385V64.355Z" fill="#002240"/>
<path d="M9.19385 70.4839H12.2588V73.5489H9.19385V70.4839Z" fill="#002240"/>
<path d="M6.12891 6.12891H9.1939V9.1939H6.12891V6.12891Z" fill="#002240"/>
<path d="M12.2578 6.12891H15.3228V9.1939H12.2578V6.12891Z" fill="#002240"/>
<path d="M9.19385 3.06494H12.2588V6.12994H9.19385V3.06494Z" fill="#002240"/>
<path d="M9.19385 9.19385H12.2588V12.2588H9.19385V9.19385Z" fill="#002240"/>
<path d="M82.7422 6.12891H85.8072V9.1939H82.7422V6.12891Z" fill="#002240"/>
<path d="M88.8711 6.12891H91.9361V9.1939H88.8711V6.12891Z" fill="#002240"/>
<path d="M85.8062 3.06494H88.8712V6.12994H85.8062V3.06494Z" fill="#002240"/>
<path d="M85.8062 9.19385H88.8712V12.2588H85.8062V9.19385Z" fill="#002240"/>
<path d="M47.5002 33.7099C45.0758 33.7099 42.7058 32.9909 40.69 31.644C38.6742 30.2971 37.1031 28.3826 36.1753 26.1428C35.2475 23.9029 35.0047 21.4383 35.4777 19.0604C35.9507 16.6826 37.1182 14.4985 38.8325 12.7841C40.5468 11.0698 42.7309 9.90236 45.1088 9.42939C47.4866 8.95641 49.9513 9.19916 52.1911 10.1269C54.431 11.0547 56.3454 12.6259 57.6923 14.6417C59.0393 16.6575 59.7582 19.0274 59.7582 21.4519C59.7545 24.7017 58.4618 27.8175 56.1638 30.1155C53.8658 32.4135 50.7501 33.7061 47.5002 33.7099Z" fill="#002240"/>
<path d="M47.5001 27.5812C46.2879 27.5812 45.1029 27.2218 44.095 26.5483C43.0871 25.8749 42.3015 24.9176 41.8376 23.7977C41.3737 22.6778 41.2524 21.4454 41.4889 20.2565C41.7254 19.0676 42.3091 17.9755 43.1662 17.1184C44.0234 16.2612 45.1155 15.6775 46.3044 15.441C47.4933 15.2045 48.7256 15.3259 49.8456 15.7898C50.9655 16.2537 51.9227 17.0392 52.5962 18.0472C53.2696 19.0551 53.6291 20.24 53.6291 21.4522C53.6275 23.0773 52.9813 24.6353 51.8322 25.7843C50.6831 26.9334 49.1251 27.5797 47.5001 27.5812ZM47.5001 18.3872C46.8939 18.3872 46.3013 18.567 45.7973 18.9038C45.2932 19.2406 44.9004 19.7193 44.6684 20.2793C44.4364 20.8394 44.3757 21.4556 44.494 22.0502C44.6123 22.6447 44.9042 23.1909 45.3328 23.6195C45.7615 24.0482 46.3076 24.3401 46.9021 24.4584C47.4967 24.5766 48.113 24.5159 48.673 24.2839C49.2331 24.052 49.7118 23.6591 50.0486 23.1551C50.3853 22.651 50.5651 22.0584 50.5651 21.4522C50.564 20.6398 50.2408 19.8609 49.6662 19.2865C49.0916 18.7121 48.3126 18.388 47.5001 18.3872Z" fill="#002240"/>
</g>
<defs>
<clipPath id="clip0_1807_37">
<rect width="95" height="95" fill="white"/>
</clipPath>
</defs>
</svg>
