<svg width="95" height="95" viewBox="0 0 95 95" fill="none" xmlns="http://www.w3.org/2000/svg">
<g clip-path="url(#clip0_1807_23)">
<path d="M38.3066 35.2422H45.9676V84.2742H38.3066V35.2422Z" fill="#002240"/>
<path d="M9.19385 35.2422H16.8548V84.2742H9.19385V35.2422Z" fill="#002240"/>
<path d="M59.7588 65.8872H90.4038V73.5482H59.7588V65.8872Z" fill="#002240"/>
<path d="M64.355 73.5479H67.42V82.7419H64.355V73.5479Z" fill="#002240"/>
<path d="M76.6128 73.5479H79.6778V82.7419H76.6128V73.5479Z" fill="#fedb03"/>
<path d="M91.9361 86.0882V63.7332L79.5831 51.0332L77.3831 53.1712L88.2621 64.3612H61.8921L72.7711 53.1712L70.5711 51.0332L58.2211 63.7332V86.0882C57.3285 86.4042 56.5554 86.9884 56.0078 87.7609C55.4601 88.5334 55.1648 89.4563 55.1621 90.4032V95.0032H95.0011V90.4032C94.998 89.4556 94.7018 88.5321 94.153 87.7596C93.6043 86.987 92.8298 86.4032 91.9361 86.0882ZM88.8711 67.4192V85.8032H85.8061V76.6132H82.7421V85.8032H73.5481V76.6132H70.4831V85.8032H61.2891V67.4192H88.8711ZM91.9361 91.9352H58.2261V90.4032C58.2266 89.997 58.3882 89.6077 58.6754 89.3205C58.9626 89.0333 59.352 88.8717 59.7581 88.8712H90.4031C90.8093 88.8717 91.1986 89.0333 91.4858 89.3205C91.773 89.6077 91.9346 89.997 91.9351 90.4032L91.9361 91.9352Z" fill="#002240"/>
<path d="M95 31.6231L86.523 21.4521H86.011L33.99 7.39209L33.19 10.3521L74.259 21.4521H32.178V12.9691H29.113V21.4521H26.049V12.9691H22.984V21.4521H4.476L22.442 10.4991L20.842 7.88309L0 20.5911V36.7741H15.323V82.7421H10.723C9.503 82.7421 8.33298 83.2267 7.47031 84.0894C6.60764 84.9521 6.123 86.1221 6.123 87.3421V94.9991H49.023V87.3391C49.023 86.1191 48.5384 84.9491 47.6757 84.0864C46.813 83.2237 45.643 82.7391 44.423 82.7391H39.823V36.7741H70.484V45.6121H73.548V36.7741H76.613V45.6111H79.678V36.7741H95V31.6231ZM85.09 24.5161L86.29 25.9551L78.095 33.2381L67.195 24.5171L85.09 24.5161ZM3.065 33.7101V26.1731L12.487 33.7101H3.065ZM5.9 24.5161H27.809L16.855 33.2801L5.9 24.5161ZM27.581 72.4991L36.775 80.3791V82.7391H18.387V80.3791L27.581 72.4991ZM18.387 76.3441V64.6211L25.227 70.4841L18.387 76.3441ZM29.934 70.4811L36.774 64.6181V76.3431L29.934 70.4811ZM27.58 68.4631L18.386 60.5831V58.9311L27.58 51.0501L36.774 58.9311V60.5871L27.58 68.4631ZM18.387 54.8991V43.1701L25.227 49.0331L18.387 54.8991ZM29.934 49.0361L36.774 43.1731V54.8991L29.934 49.0361ZM27.58 47.0181L18.386 39.1381V36.7781H36.774V39.1381L27.58 47.0181ZM44.435 85.8101C44.8412 85.8106 45.2305 85.9722 45.5177 86.2594C45.8049 86.5466 45.9665 86.9359 45.967 87.3421V91.9421H9.194V87.3421C9.19453 86.9359 9.35611 86.5466 9.6433 86.2594C9.93049 85.9722 10.3199 85.8106 10.726 85.8101H44.435ZM21.223 33.7101L32.177 24.9471L43.131 33.7101H21.223ZM36.546 24.5161H58.454L47.5 33.2801L36.546 24.5161ZM51.869 33.7101L62.823 24.9471L73.777 33.7101H51.869ZM91.936 33.7101H82.175L88.251 28.3101L91.936 32.7321V33.7101Z" fill="#002240"/>
<path d="M75.0811 55.1608C73.8689 55.1608 72.684 54.8014 71.6761 54.1279C70.6681 53.4545 69.8826 52.4972 69.4187 51.3773C68.9548 50.2574 68.8334 49.025 69.0699 47.8361C69.3064 46.6472 69.8901 45.5551 70.7473 44.698C71.6044 43.8408 72.6965 43.2571 73.8854 43.0206C75.0743 42.7841 76.3067 42.9055 77.4266 43.3694C78.5465 43.8333 79.5038 44.6188 80.1772 45.6267C80.8507 46.6347 81.2101 47.8196 81.2101 49.0318C81.2086 50.6569 80.5623 52.2149 79.4132 53.3639C78.2642 54.513 76.7062 55.1592 75.0811 55.1608Z" fill="#fedb03"/>
<path d="M27.5809 15.323C26.0657 15.323 24.5845 14.8737 23.3247 14.0319C22.0649 13.1901 21.0829 11.9936 20.5031 10.5937C19.9232 9.19385 19.7715 7.65348 20.0671 6.16739C20.3627 4.6813 21.0924 3.31625 22.1638 2.24483C23.2352 1.17342 24.6003 0.443785 26.0863 0.148184C27.5724 -0.147417 29.1128 0.00429595 30.5127 0.584139C31.9125 1.16398 33.109 2.14591 33.9508 3.40576C34.7926 4.6656 35.2419 6.14678 35.2419 7.66198C35.2395 9.69307 34.4316 11.6403 32.9954 13.0765C31.5592 14.5127 29.612 15.3206 27.5809 15.323Z" fill="#fedb03"/>
<path d="M29.1138 7.66091C29.1138 7.96387 29.024 8.26002 28.8557 8.51194C28.6874 8.76385 28.4482 8.96021 28.1683 9.0762C27.8884 9.19218 27.5804 9.22258 27.2833 9.16354C26.9861 9.10451 26.7132 8.9587 26.4989 8.74455C26.2846 8.5304 26.1386 8.25751 26.0794 7.9604C26.0201 7.66328 26.0503 7.35528 26.1661 7.07533C26.2819 6.79538 26.4781 6.55604 26.7299 6.38758C26.9817 6.21912 27.2778 6.1291 27.5808 6.12891C27.7821 6.12878 27.9814 6.1683 28.1674 6.24524C28.3534 6.32217 28.5224 6.43499 28.6647 6.57727C28.8071 6.71954 28.92 6.88847 28.9971 7.07441C29.0741 7.26034 29.1138 7.45964 29.1138 7.66091Z" fill="black"/>
</g>
<defs>
<clipPath id="clip0_1807_23">
<rect width="95" height="95" fill="white"/>
</clipPath>
</defs>
</svg>
